<mxfile host="app.diagrams.net" modified="2023-07-11T02:09:01.222Z" agent="Mozilla/5.0 (Windows NT 10.0; Win64; x64) AppleWebKit/537.36 (KHTML, like Gecko) Chrome/114.0.0.0 Safari/537.36" version="21.6.1" etag="y02Jt3vmuhQhLrsw0Q3A" type="github">
  <diagram name="페이지-1" id="bOSZFXRPDy27IIASFwV3">
    <mxGraphModel>
      <root>
        <mxCell id="0" />
        <mxCell id="1" parent="0" />
      </root>
    </mxGraphModel>
  </diagram>
</mxfile>
